<svg width="140" height="140" viewBox="0 0 140 140" fill="none" xmlns="http://www.w3.org/2000/svg">
<circle cx="70" cy="70" r="70" fill="#232931"/>
<path d="M51.9148 106.47L55.2258 97.769L12.6448 76.44V68.74L45.7548 52.185V59.115L21.8848 70.742C21.0122 71.204 20.2165 71.589 19.4978 71.897C18.7792 72.205 18.2402 72.4103 17.8808 72.513C18.2402 72.6157 18.7792 72.821 19.4978 73.129C20.2165 73.437 21.0122 73.822 21.8848 74.284L57.3818 91.994L79.2498 34.09H86.5648L81.8678 46.641L125.835 68.74V76.44L92.7248 92.995V86.296L116.595 74.592C117.57 74.13 118.469 73.745 119.29 73.437C120.163 73.0777 120.804 72.8467 121.215 72.744C120.753 72.6413 120.086 72.436 119.213 72.128C118.34 71.7687 117.468 71.358 116.595 70.896L79.6348 52.416L59.2298 106.47H51.9148Z" fill="#4ECCA3"/>
</svg>
